<?xml version="1.0" encoding="utf-8"?>
<!-- Generator: Adobe Illustrator 27.3.1, SVG Export Plug-In . SVG Version: 6.00 Build 0)  -->
<svg version="1.1" id="designs" xmlns="http://www.w3.org/2000/svg" xmlns:xlink="http://www.w3.org/1999/xlink" x="0px" y="0px"
	 viewBox="0 0 800 800" style="enable-background:new 0 0 800 800;" xml:space="preserve">
<style type="text/css">
	.st0{fill:#BF006B;}
</style>
<path class="st0" d="M749.4,599.9c0-5.1-0.1-10.2,0-15.3c0.1-10.5,0.7-20.9,0.7-31.4c-0.1-22.3-0.5-44.5-1-66.7
	c-0.3-15.4,0.2-30.7-0.2-46.1c-0.2-8.2-0.7-16.5-0.9-24.7c-0.2-7.5-0.1-15.1-0.1-22.7c-0.1-34-2.9-67.8-2.9-101.8
	c0-15.1,0-30.2-0.1-45.3c-0.1-15.8,1-31.6,1.9-47.4c0.7-10.8-9.5-19.8-19.8-19.8c-0.7,0-1.2,0.3-1.9,0.4c-3.1-1.9-6.4-3.2-10.2-3.3
	c-0.4,0-0.7,0-1,0c-4.3,0-8.7,0.8-13,0.8c-4.6,0.1-9.3,0.1-13.9,0.1c0-4.2,0.1-8.4,0-12.6c-0.2-9.5-7-17.3-16.1-19.1
	c-0.4-0.9-0.4-1.9-0.9-2.7c-2.1-3.6-6.6-7.9-11.1-8.5c-15-2-30.1-2.7-45.2-2.7c-17.3,0-34.7,0.9-52,1.7c-16.9,0.8-33.9,1.8-50.9,2.8
	c-15.7,0.9-31.3,2-46.7,5.3c-6.4,1.4-13,2.7-19.2,4.8c-8,2.7-15.7,6-23.3,9.7c-8.6,4.2-16,10.6-22.9,17.4c-4.6-4-9.5-7.8-14.6-11.1
	c-9.6-6.2-20.4-10.5-31.4-13.8c-15.9-4.6-32.6-6.5-49.1-7.3c-16.7-0.8-33.3-2.2-50.1-2.5c-18.8-0.3-37.6-0.4-56.5-0.5
	c-16.8-0.1-33.6-0.7-50.4-0.7c-3.8,0-7.6,0-11.4,0.1c-8.6,0.1-15.8,5.9-18.2,13.8c-4.3,3.6-7.2,8.7-6.9,14.5
	c0.2,3.2,0.2,6.3,0.3,9.5c-0.8,0-1.6-0.3-2.4-0.3c0.4-0.1,0.8-0.1,1.3-0.2c-4.1,0.4-8.3,0-12.4,0c-3.3,0-6.6-0.1-9.8-0.1
	c-3.3,0-6.6,0-9.8,0.1c-8.6,0.1-16.1,5.5-19.2,13.1c-4.4,3.6-7.4,8.8-7.4,14.8c0.2,19.5,0.6,39,0.4,58.5c-0.2,17.3-0.3,34.6-0.5,52
	c-0.2,19.9-0.2,39.9-0.3,59.9c-0.1,19.4,0.6,38.7,1,58.1c0.2,16.5,0.3,32.8,0.6,49.3c0.3,16.8,1.2,33.4,1.6,50.1
	c0.5,27,0.2,54.1,0.5,81.2c0.1,9.8,7.3,17.7,16.7,19.4c1.1,0.5,2.2,0.5,3.4,0.7c0,0,0,0,0.1,0l0,0c1.5,0.3,2.9,0.9,4.4,0.8
	c9.3-0.6,18.4-1.5,27.7-2.2c9.9-0.7,19.9-1.1,29.9-1.2c12.2-0.2,24.5-0.2,36.7-0.1c6.5,0,13,0.1,19.5,0c35.8-0.2,71.6-0.5,107.5,0.7
	c3.9,0.1,7.8,0.2,11.7,0.3c0.5,5.9,1.6,11.6,2.7,17.3c0.7,3.7,1.4,6.2,3.1,10c3.7,8.1,13,11.8,21.4,11.8c4.6,0,9.3-0.1,13.9-0.2
	c28.2-0.5,56.3-0.8,84.5-0.6c6.1,0,12.2-0.1,18.3-0.1c3.1,0.1,6.2,0.1,9.4,0.2c1.2,0,2.4,0.2,3.6,0.2c4.8,0.2,9-1.1,13.3-3.1
	c11.3-5.2,13.5-18.1,14.6-29.1c0.2-2,0.3-4.1,0.4-6.1c11.8-1,23.8-1.2,35.6-1.5c17.8-0.4,35.7-0.5,53.5-0.7
	c35.8-0.3,71.6,0.5,107.4,0.6c1.7,0.1,3.4,0.1,5,0.1c6.3,0,12.7,0.1,19,0.5c1,0.9,1.8,2,3,2.7c4.5,2.6,9.9,3.3,14.9,2
	c6.9-1.9,11-7,13.5-13.5c1.5-3.8,1.2-8.2,1.1-12.4C749.3,605.2,749.4,602.6,749.4,599.9z M234,173.8c7.5,0.1,15,0.2,22.5,0.4
	c6.8,0.3,13.6,1.1,20.4,1.8c7.5,0.7,15.1,1.2,22.6,1.4c6.5,0.2,12.9,0.3,19.3,0.9c12,1.9,23.8,4.6,35,9.1c4.8,2.2,9.3,4.8,13.5,7.9
	c3.6,2.9,7,5.8,10,9.3c0.4,0.5,0.8,1,1.1,1.6c0.8,1.1,1.7,1.9,2.5,2.8c0.3,7,0.5,14.1,0.7,21.1c0.2,9.8,0.8,19.6,0.5,29.3
	c-0.3,9.2-0.9,18.4-1.6,27.5c-0.7,8.9-0.7,17.7-0.7,26.6c-0.2,18.1-0.3,36.1-0.1,54.2c0.2,18.5,0.8,36.9,1,55.4
	c0,5.8-0.4,11.6-0.4,17.4c0,9.6,0.3,19.2,0.3,28.8c0.1,13.6-0.6,27,0.2,40.5c0.6,9.7,7.7,17.9,17.9,17.9c4.8,0,9.3-1.9,12.7-5.2
	c3-3,5.9-8.3,5.2-12.7c-0.6-4.9-0.4-9.9-0.5-14.9c-0.2-7.6-0.3-15.1-0.1-22.7c0.4-14.4,1-28.9,0.2-43.3c-1-18-1.1-36.1-0.9-54.1
	c0.2-18.4,0.9-36.7,0.6-55.1c-0.2-19,1.3-38,2.6-56.9c1.2-18.8,1.2-37.8,1-56.7c4.6-4.9,9.3-10,14.4-14.3c4.6-3.1,9.4-5.6,14.5-7.9
	c10.4-4.1,21.4-6.9,32.5-8.6c12.8-1.6,25.5-2.8,38.4-3.2c15.2-0.5,30.4-2.4,45.6-3.3c27.5-1.6,55-2.1,82.4,0.8
	c0.8,16.9,2.1,33.9,1.7,50.8c-0.3,16.5,0,32.9,0.8,49.4c1,18.2,1.3,36.4,1.8,54.5c0.4,18.5,1,37.1,1.1,55.6
	c0.1,16.6,0,33.2,0.2,49.8c0.2,13.3,1.2,26.6,1.5,39.8c0.2,10.4,0.2,20.9-0.3,31.4c-0.3,8,0.2,16.1-0.2,24.1c-4.3,0-8.7-0.2-13-0.2
	c-7.7-0.1-15.5-0.4-23.2-0.6c-7.7-0.2-15.3-0.2-22.9-0.5c-9.1-0.4-18.2-1.1-27.3-1.5c-12.5-0.5-25-0.8-37.6-0.8
	c-5.7,0-11.4,0.1-17.1,0.2c-8.7,0.3-17.6,0.4-26.2,1.5c-9.3,1.1-18.5,2.6-27.7,4.5c-11.9,2.4-23.6,6.4-35.1,10.3
	c-4.1,1.3-8.2,2.8-12,4.9c-2.6,1.5-4.9,3.2-7.3,5c-2.2,1.6-4.2,3.6-6.4,5.3c-2.8-2.1-5.6-4.1-8.4-6.2c-4-3.1-8.2-5.7-12.8-7.9
	c-5.4-2.7-11-4.8-16.8-6.7c-7.6-2.6-15.3-3.8-23.2-4.8c-10.9-1.5-21.9-2-32.9-2c-19,0-38.2,1.5-57.1,2.2
	c-18.4,0.6-36.8,1.1-55.2,1.9c-9.3,0.4-18.6,1.1-27.9,1.3c-3.3,0.1-6.7,0.2-10.1,0.2c1.5-2.7,2.6-5.6,2.2-8.4
	c-0.9-6.7-0.7-13.7-0.8-20.4c-0.1-5.9-0.1-11.9-0.3-17.8c-0.5-16.7-1.5-33.3-2.2-49.9c-0.9-18.5-1.2-37.1-1.7-55.6
	c-0.5-18.4-1.7-36.8-2.3-55.2c-1-26.8-0.6-53.6,0-80.5c0.3-12.1,0-24.2,0.1-36.3c0.2-10.5,0.3-21,0.2-31.5
	C177.1,174.3,205.6,173.5,234,173.8z M679.2,591.8c-15.8,0-31.6-0.1-47.3,0c-35,0.1-70.1,0.2-105.2-0.2c-6.9-0.1-13.7,0.1-20.6,0.1
	c-1.9,0-3.8,0-5.8,0c-8-0.1-16.2-0.2-23.9,1.7c-4.1,1-8.5,3.6-11.4,6.7c-4.4,4.9-6.2,10.2-6.7,16.6c-0.2,2.5-0.4,5.1-0.4,7.6
	c0,2.2,0,4.3-0.1,6.4c-0.9,0-1.8,0.1-2.8,0.1c-4.5,0.2-9.1,0.4-13.6,0.5c-10.6,0.2-21.1,0.1-31.6,0.1c-11.4,0-22.7,0-34-0.3
	c-8-0.2-16.1-0.1-24.2-0.6c-0.3-1.2-0.6-2.5-0.8-3.8c-0.5-5.1-0.8-10.2-1.5-15.4c-0.9-6.7-5.4-12.8-11-16.4
	c-5.1-3.3-11.1-3.7-17-3.7c-13.4,0.1-26.7-0.4-40.1-0.5c-9.4,0-18.8,0-28.2,0c-9.4,0.1-18.8,0.1-28.2,0c-15.1,0-30.1-0.2-45.2-0.2
	c-4.4,0-8.8,0-13.1,0c-24.6,0.3-49.1,0.5-73.6,1.4c0-0.9-0.1-1.8-0.1-2.6c-0.2-8.9-0.2-17.9-0.2-26.8c0-17.6-0.5-35.2-1-52.8
	c-0.5-20.1-0.5-40-0.4-60.1c0.2-19-0.8-37.9-1.1-56.9c-0.6-33-0.2-66-0.2-99c-0.1-13.7-0.3-27.4-0.6-41.1c-0.3-12.4-0.1-24.9,0-37.3
	c2.4-0.1,4.9-0.1,7.3-0.3c4.1-0.2,8.3-0.8,12.4-0.5c-0.3-0.1-0.6-0.1-0.9-0.2c1.2,0.1,2.2-0.1,3.4-0.2c0,2.1,0.2,4.2,0.2,6.3
	c0.1,18-0.6,36.1-0.7,54.1c-0.1,18.4,0.2,36.9,0.8,55.3c0.7,18.7,1.6,37.3,2.2,56.1c0.9,25.8,1.6,51.5,2.7,77.2
	c0.4,9.9,1.2,19.8,1.3,29.8c0,5.5,0.5,10.9,0.6,16.4c0,4.4-0.1,8.7,0.1,13.1c0.2,4.2,1.9,8,4.3,11.2c-6.5,3.2-11.1,9.5-11.1,17.3
	c0,10.2,8.9,20.2,19.6,19.6c18.5-1,37.1-2.7,55.6-3.7c17.7-0.9,35.4-1.5,53.2-1.7c15.2-0.3,30.3-1.7,45.4-2c7-0.2,13.9-0.2,20.9,0
	c7.6,0.2,15.2,0.2,22.9,1.2c1.1,0.2,2.3,0.3,3.5,0.5c7.2,1.1,13.9,3.2,20.6,5.8c4.4,2.1,8.6,4.7,12.5,7.6c-1.4-1-2.7-2-4-3.1
	c4.6,3.6,9.6,7.1,13.6,11.4c2.3,2.5,5.3,3.9,8.5,4.8c0.2,0.2,0.3,0.5,0.5,0.8c7.6,7.6,20.3,7.6,27.9,0c5.7-5.7,11.7-11.3,17.9-16.5
	c0.8-0.5,1.5-1,2.3-1.4c16.1-6.1,32.7-10.9,49.8-13.5c6.7-0.8,13.4-1.3,20.2-1.8c8.5-0.5,17.1-1.2,25.6-1.4
	c17.1-0.2,34.2-0.3,51.3,1.1c8.3,0.7,16.6,0.9,24.9,1.4c7.3,0.3,14.4,0.7,21.6,0.6c5.2-0.1,10.3,0,15.5,0.1
	c9.1,0.2,18.1,0.3,27.1-0.6c5-0.5,9.3-1.7,12.9-5.4c3.4-3.3,5.2-7.8,5.3-12.6c2.1-2.2,3.9-4.8,4.7-8c1.6-6,0.7-12.8,0.7-18.9
	c0-5.1,0.1-10.1,0.2-15.2c0.3-11.3-0.1-22.5-0.7-33.8c-0.8-14.9-2-29.6-2.4-44.5c-0.4-17.6,0.1-35.3,0-53
	c-0.2-17.4-0.4-34.9-0.8-52.3c-0.3-17.1-0.2-34.2-1.1-51.3c-0.7-15.5-1.1-30.9-1.2-46.4c0-0.7,0-1.4,0-2.1c6.7-0.3,13.3-0.5,20-0.7
	c-0.1,12.5,0.1,25,0,37.5c-0.2,19.1-0.5,38.1-0.2,57.2c0.2,17,1.1,34,1.8,51c0.7,16,0.5,32.2,1.3,48.3c0.8,16.6,1.7,33.2,1.8,49.8
	c0.1,12.5-0.2,25.1,0.1,37.7c0.5,22.4,1.2,44.9,0.7,67.2c-0.2,8.1-0.7,16.2-0.8,24.3c0,0.9,0,1.9,0,2.9
	C700.7,591.8,690,591.8,679.2,591.8z M492,292.5c-3.6-3.6-5.7-8.6-5.7-13.7c0-5.1,2-10.1,5.7-13.7c3.9-3.9,8.3-5.2,13.7-5.7
	c10-1,19.9-1.7,29.9-2.1c8.2-0.3,16.3-0.5,24.5-1.1c5.5-0.3,11-0.6,16.5-1c4-0.3,7.9-0.7,11.9-0.7c0.2,0,0.4,0,0.7,0
	c10.3,0.2,18.9,8.4,18.9,18.9c0,5-2,9.9-5.5,13.4c-3.8,3.8-8.2,5.2-13.4,5.5c-4.4,0.4-8.8,0.7-13.2,0.8c-2.4,0-4.8,0-7.2,0
	c-3.3-0.1-6.6-0.1-9.8,0c-8.3,0.3-16.6,1.3-25,2.1c-9.4,0.9-18.8,1.9-28.1,2.9C500.9,298.7,495.3,295.8,492,292.5z M612.4,334
	c0,10.2-8.9,20.2-19.6,19.6c-12.6-0.8-25.5-0.5-38.1-0.1c-15.7,0.5-31.4,1.7-47,2.6c-11.1,0.7-20.3-9.8-20.3-20.3
	c0-11.5,9.3-19.8,20.3-20.3c15.7-0.8,31.3-0.9,47-0.8c12.7,0.1,25.5,0.5,38.1-0.4c0.3,0,0.7,0,1,0
	C604.1,314.3,612.4,324.1,612.4,334z M610.6,396.4c0,10.6-9,20-19.8,19.8c-4.6-0.1-9.2-0.5-13.8-0.8c-6.6-0.4-13.3-0.2-19.9-0.2
	c-14,0.2-27.9,1-41.9,1.6c-10.8,0.5-19.9-9.4-19.9-19.9c0-11.1,9.1-19.5,19.9-19.9c14-0.4,27.9,0.3,41.9,0.4
	c6.6,0,13.3,0.2,19.9-0.1c4.6-0.2,9.2-0.7,13.8-0.8c0.1,0,0.2,0,0.3,0C601.8,376.6,610.6,385.9,610.6,396.4z M186.8,270.1
	c0-10.9,9.1-19.9,19.9-19.9c1.3,0,2.6,0,3.9,0c19.9,0,39.8,0.6,59.6,0.8c6,0.1,11.9-0.1,17.8-0.5c6.7-0.5,13,1,19.5,2.1
	c4.6,0.8,9.1,4.8,11.4,8.7c2.6,4.4,3.2,9.8,1.9,14.7c-2.1,7.6-10.1,14.8-18.4,14c-5-0.5-10.1-1.2-15.2-1.3c-6-0.2-12-0.1-18,0
	c-20.9,0.3-41.8,1.1-62.7,1.5C195.9,290.2,186.8,280.8,186.8,270.1z M324.2,335.9c0,9.9-8.9,20.4-19.5,19.5
	c-6.1-0.5-12.3-0.1-18.4-0.6c-7.3-0.6-14.6-0.6-21.9-0.7c-19.1-0.4-38.4,1.4-57.4,2.8c-10.8,0.8-19.9-9.6-19.9-19.9
	c0-11.3,9.1-19.2,19.9-19.8c19.2-1.1,38.3-1,57.4-0.9c7.5,0,15.1-0.3,22.6-0.6c0.9,0,1.7,0,2.6,0c5,0,10.1,0.4,15.1,0.8
	C315.3,317,324.2,324.8,324.2,335.9z M304.7,385.7c-3.2-0.9-6.4-1-9.6-0.3c-10.8,1-21.7,0.1-32.5-0.3c-15.9-0.6-31.7-1.1-47.5-1.3
	c-0.1,0-0.3,0-0.4,0c-11.4,0-20.7,9.9-20.7,21.1c0,11.5,9.6,21.1,21.1,21.1c15.8,0.1,31.6-0.3,47.5-0.7c12.3-0.4,24.4-1,36.7,0.2
	c5.1,0.5,10.8-2.4,14.3-5.9c3.8-3.8,6-9,6-14.3c0-5.4-2.2-10.5-6-14.3C311.1,388.4,308.2,386.6,304.7,385.7z M294,385.7
	c-0.4,0-0.8,0.1-1.2,0.1C293.2,385.8,293.6,385.7,294,385.7C294,385.7,294,385.7,294,385.7z"/>
</svg>
